<?xml version="1.0" encoding="UTF-8"?>
<svg width="24px" height="24px" viewBox="0 0 24 24" version="1.1" xmlns="http://www.w3.org/2000/svg" xmlns:xlink="http://www.w3.org/1999/xlink">
    <title>EB8702C1-6CE7-4EFC-9952-E935ADEE36A4</title>
    <g id="Mobile" stroke="none" stroke-width="1" fill="none" fill-rule="evenodd">
        <g id="01_Tringconnect_home_updated" transform="translate(-322.000000, -698.000000)">
            <g id="post_1" transform="translate(0.000000, 233.000000)">
                <g id="ic_comment" transform="translate(322.000000, 465.000000)">
                    <rect id="dummy" x="0" y="0" width="24" height="24"></rect>
                    <path d="M12,3.08108108 C7.08108108,3.08108108 3.08108108,7.08216216 3.08108108,12 C3.08108108,16.9180541 7.08108108,20.9189189 12,20.9189189 C13.3902703,20.9189189 14.732973,20.5989189 15.9913514,19.9675676 C16.0972973,19.9141622 16.2183784,19.8970811 16.3351351,19.9197838 L20.7589189,20.7740541 L19.8464865,16.5005405 C19.8205405,16.3768649 19.8378378,16.248 19.8983784,16.1364324 C20.5751351,14.8458378 20.9189189,13.4540541 20.9189189,12 C20.9189189,7.08216216 16.9167568,3.08108108 12,3.08108108 Z M21.3556757,21.9902703 L16.3091892,21.0155676 C14.947027,21.6687568 13.4983784,22 12,22 C6.48648649,22 2,17.5141622 2,12 C2,6.48583784 6.48648649,2 12,2 C17.5135135,2 22,6.48583784 22,12 C22,13.5651892 21.6454054,15.0657297 20.9448649,16.4631351 L21.987027,21.3468108 C22.0237838,21.5241081 21.9718919,21.7087568 21.8443243,21.8380541 C21.7405405,21.9427027 21.6021622,22 21.4572973,22 C21.4248649,22 21.3902703,21.996973 21.3556757,21.9902703 Z" id="shape" stroke="#000000" stroke-width="0.5" fill="#000000"></path>
                </g>
            </g>
        </g>
    </g>
</svg>