<?xml version="1.0" encoding="UTF-8"?>
<svg width="24px" height="24px" viewBox="0 0 24 24" version="1.1" xmlns="http://www.w3.org/2000/svg" xmlns:xlink="http://www.w3.org/1999/xlink">
    <title>C5F056C2-D8FA-40AA-99B0-B3913960AFDB</title>
    <g id="Mobile" stroke="none" stroke-width="1" fill="none" fill-rule="evenodd">
        <g id="01_Tringconnect_home_on_Action" transform="translate(-308.000000, -60.000000)">
            <g id="top_navigation" transform="translate(0.000000, 48.000000)">
                <g id="ic_notification" transform="translate(308.000000, 12.000000)">
                    <rect id="dummy" x="0" y="0" width="24" height="24"></rect>
                    <path d="M12,2 C8.00848,2 4.77734,5.28481 4.77734,9.31055 L4.77734,12.81445 C3.79101,13.24918 3,14.05838 3,15.19727 C3,16.7254 4.24804,18 5.77734,18 L18.22266,18 C19.75196,18 21,16.7254 21,15.19727 C21,14.05838 20.20899,13.24918 19.22266,12.81445 L19.22266,9.31055 C19.22266,5.28481 15.99152,2 12,2 L12,2 Z M17.22266,9.31055 C17.22466,10.63864 17.22366,12.03895 17.21466,13.3418 C17.18566,13.91301 17.64076,14.39214 18.15187,14.39236 C18.66297,14.39258 18.99985,14.72733 18.99985,15.19727 C18.99985,15.66719 18.66297,16 18.2225,16 L5.77714,16 C5.33667,16 4.9998,15.66719 4.9998,15.19727 C4.9998,14.72733 5.33667,14.39258 5.84736,14.39233 C6.35805,14.39209 6.81279,13.91421 6.78496,13.34375 C6.76436,12.02066 6.77696,10.65153 6.77696,9.31055 C6.77696,6.34301 9.09692,4 11.99961,4 C14.90231,4 17.22227,6.34301 17.22227,9.31055 L17.22266,9.31055 Z M10,20 C9.44771525,20 9,20.4477153 9,21 C9,21.5522847 9.44771525,22 10,22 L14,22 C14.5522847,22 15,21.5522847 15,21 C15,20.4477153 14.5522847,20 14,20 L10,20 Z" id="Shape" fill="#5BBC2E" fill-rule="nonzero"></path>
                </g>
            </g>
        </g>
    </g>
</svg>