<?xml version="1.0" encoding="UTF-8"?>
<svg width="24px" height="24px" viewBox="0 0 24 24" version="1.1" xmlns="http://www.w3.org/2000/svg" xmlns:xlink="http://www.w3.org/1999/xlink">
    <title>4C0DF011-F75A-4CB4-A45E-FF9FD420E21D</title>
    <g id="Mobile" stroke="none" stroke-width="1" fill="none" fill-rule="evenodd">
        <g id="01_Tringconnect_home_on_Action" transform="translate(-342.000000, -60.000000)" fill-rule="nonzero">
            <g id="top_navigation" transform="translate(0.000000, 48.000000)">
                <g id="ic_search" transform="translate(342.000000, 12.000000)">
                    <rect id="dummy" opacity="0" x="0" y="0" width="24" height="24"></rect>
                    <g id="search" transform="translate(2.000000, 2.000000)" fill="#5BBC2E">
                        <path d="M2.3568949,13.7367683 C5.22236465,16.6062845 9.77762207,16.8889773 12.9758949,14.3957683 L18.2938949,19.7137683 C18.6862738,20.0927405 19.3099797,20.0873206 19.6957135,19.7015868 C20.0814473,19.315853 20.0868671,18.6921472 19.7078949,18.2997683 L14.3898949,12.9817683 C17.0017467,9.62985289 16.5542338,4.82424646 13.3683778,2.01223149 C10.1825219,-0.799783492 5.3585394,-0.647094218 2.3568949,2.36076827 C0.847841798,3.86905334 -2.22044605e-16,5.91518792 -2.22044605e-16,8.04876827 C-2.22044605e-16,10.1823486 0.847841798,12.2284832 2.3568949,13.7367683 Z M3.7708949,3.77676827 C5.80941288,1.73829451 9.00399335,1.42362587 11.401058,3.02519131 C13.7981227,4.62675676 14.7301004,7.69852795 13.6270599,10.362028 C12.5240194,13.025528 9.6931522,14.5389849 6.86561541,13.9768759 C4.03807861,13.4147669 2.00132777,10.9336367 2.00085907,8.05076827 C1.99535322,6.4460915 2.63283012,4.90606257 3.7708949,3.77476827 L3.7708949,3.77676827 Z" id="Shape"></path>
                    </g>
                </g>
            </g>
        </g>
    </g>
</svg>