<?xml version="1.0" encoding="UTF-8"?>
<svg width="127px" height="20px" viewBox="0 0 127 20" version="1.1" xmlns="http://www.w3.org/2000/svg" xmlns:xlink="http://www.w3.org/1999/xlink">
    <title>CA754271-7057-418A-8778-CE8948584460</title>
    <g id="Mobile" stroke="none" stroke-width="1" fill="none" fill-rule="evenodd">
        <g id="01_Tringconnect_home_updated" transform="translate(-132.000000, -62.000000)">
            <g id="top_navigation" transform="translate(0.000000, 48.000000)">
                <g id="tring-connect" transform="translate(132.000000, 14.000000)">
                    <path d="M2.67295602,2.32008593 C2.22389941,3.54457573 1.71069185,4.70461869 0.213836482,4.83351235 L0,6.40171858 L1.51823902,6.40171858 L1.51823902,12.1374866 C1.51823902,13.641246 1.49685537,15.7035446 4.83270449,15.7035446 C5.83773595,15.7035446 6.90691836,15.4027927 7.54842781,14.9516649 L6.90691836,13.2975295 C6.56477999,13.5123523 6.03018879,13.7486574 5.45283029,13.7486574 C4.57610071,13.7486574 4.06289315,13.3619764 4.06289315,12.0515575 L4.06289315,6.40171858 L6.69308188,6.40171858 L6.90691836,4.5972073 L4.06289315,4.5972073 L4.06289315,2.32008593 L2.67295602,2.32008593 Z" id="Path" fill="#5BBC2E"></path>
                    <path d="M10.0075473,12.9967777 C10.0075473,13.5338346 9.79371086,13.6627282 9.38742155,13.7056928 L8.68176116,13.7701396 L8.68176116,15.4027927 L14.4125789,15.4027927 L14.4125789,13.7056928 L12.5522015,13.6197637 L12.5522015,8.6358754 C12.5522015,7.38990333 13.3433965,6.46616541 14.4981135,6.46616541 C14.7333336,6.46616541 14.8830191,6.48764769 15.075472,6.5735768 C15.2465411,6.65950591 15.2893084,6.8528464 15.2893084,7.11063373 L15.2893084,8.09881847 L17.2779877,7.94844253 L17.2779877,4.74758324 C16.5723273,4.40386681 15.9308179,4.27497315 15.2251575,4.27497315 C13.8138367,4.27497315 12.6805034,5.13426423 12.1886795,6.20837809 L12.1886795,4.5972073 L8.57484292,4.5972073 L8.57484292,6.33727175 L9.47295614,6.40171858 C9.87924546,6.42320086 10.0075473,6.5735768 10.0075473,7.0461869 L10.0075473,12.9967777 Z" id="Path" fill="#5BBC2E"></path>
                    <path d="M22.2176105,4.5972073 L18.3899374,4.5972073 L18.3899374,6.38023631 L19.1383651,6.42320086 C19.5446544,6.42320086 19.6729563,6.5735768 19.6729563,7.0461869 L19.6729563,13.0182599 C19.6729563,13.5338346 19.4377362,13.6627282 19.0528305,13.7056928 L18.3471701,13.7701396 L18.3471701,15.4027927 L23.4364784,15.4027927 L23.4364784,13.6842105 L22.2176105,13.6197637 L22.2176105,4.5972073 Z" id="Path" fill="#5BBC2E"></path>
                    <path d="M19.0742142,1.61117078 C19.0742142,2.51342642 19.7157236,3.17937701 20.6993714,3.17937701 C21.6616356,3.17937701 22.3459123,2.51342642 22.3459123,1.61117078 C22.3459123,0.708915145 21.6616356,0 20.7207551,0 C19.7157236,0 19.0742142,0.708915145 19.0742142,1.61117078 Z" id="Path" fill="#5BBC2E"></path>
                    <path d="M24.6553463,6.31578947 L25.5534596,6.38023631 C25.9383652,6.40171858 26.0880508,6.5735768 26.0880508,7.0461869 L26.0880508,12.9967777 C26.0880508,13.5338346 25.8742143,13.6627282 25.467925,13.7056928 L24.7622646,13.7701396 L24.7622646,15.4027927 L29.8515729,15.4027927 L29.8515729,13.6842105 L28.6327049,13.6197637 L28.6327049,8.42105263 C28.6327049,7.30397422 29.4238999,6.25134264 30.8352207,6.25134264 C32.2893087,6.25134264 32.5886798,7.15359828 32.5886798,8.57142857 L32.5886798,12.9967777 C32.5886798,13.5338346 32.3748433,13.6627282 31.968554,13.7056928 L31.2628936,13.7701396 L31.2628936,15.4027927 L36.3522019,15.4027927 L36.3522019,13.6842105 L35.133334,13.6197637 L35.133334,8.01288937 C35.133334,5.47798067 33.8716987,4.27497315 31.7333339,4.27497315 C30.3220131,4.27497315 29.0176106,4.91944146 28.2691829,5.99355532 L28.2691829,4.5972073 L24.6553463,4.5972073 L24.6553463,6.31578947 Z" id="Path" fill="#5BBC2E"></path>
                    <path d="M43.0025165,4.27497315 C44.0289316,4.27497315 45.6968562,4.53276047 46.9584914,5.0698174 L46.9584914,5.0698174 L46.9584914,13.0397422 C46.9584914,13.7916219 46.979875,14.6079484 46.9157241,15.3813104 C46.6591203,18.5392052 45.1836486,20 41.9761014,20 C40.6289315,20 38.8540887,19.7422127 37.9559755,19.2910849 L37.9559755,19.2910849 L37.9559755,16.3050483 L39.9874221,16.1331901 L39.9874221,17.1643394 C39.9874221,17.5725027 40.0943403,17.7873255 40.479246,17.9377014 C40.8855353,18.0880773 41.3559756,18.1525242 41.997485,18.1525242 C43.9647807,18.1525242 44.4779882,16.7991407 44.4779882,14.9946294 L44.4779882,14.9946294 L44.4779882,13.8131042 C43.7509442,14.6723953 42.6817618,15.0161117 41.633963,15.0161117 C38.5119504,15.0161117 37.442768,12.4382385 37.442768,9.98925886 C37.442768,6.1009667 39.7735856,4.27497315 43.0025165,4.27497315 Z M42.7672964,6.14393126 C40.9924536,6.14393126 40.0729567,7.56176155 40.0729567,9.73147154 C40.0729567,11.1922664 40.3081768,13.1256713 42.2968561,13.1256713 C43.4943404,13.1256713 44.4779882,12.3308271 44.4779882,11.0204082 L44.4779882,11.0204082 L44.4779882,6.40171858 C43.9861643,6.22986037 43.3660385,6.14393126 42.7672964,6.14393126 Z" id="Combined-Shape" fill="#5BBC2E"></path>
                    <path d="M49.0871891,9.737 C49.0871891,13.043 51.2514339,15.171 54.2889704,15.171 C56.9088456,15.171 58.6744137,13.689 59.2439518,11.447 L56.3772767,11.447 C56.0545384,12.397 55.3710927,12.891 54.2699858,12.891 C52.7891867,12.891 51.8019874,11.789 51.8019874,9.737 C51.8019874,7.685 52.7891867,6.564 54.2699858,6.564 C55.3710927,6.564 56.073523,7.134 56.3772767,8.027 L59.2439518,8.027 C58.6744137,5.671 56.9088456,4.303 54.2889704,4.303 C51.2514339,4.303 49.0871891,6.431 49.0871891,9.737 Z" id="Path" fill="#6D7278" fill-rule="nonzero"></path>
                    <path d="M71.3561285,9.737 C71.3561285,6.412 68.9830531,4.303 65.9455166,4.303 C62.9079801,4.303 60.5349048,6.412 60.5349048,9.737 C60.5349048,13.043 62.8320417,15.171 65.8695782,15.171 C68.9260993,15.171 71.3561285,13.043 71.3561285,9.737 Z M63.2307184,9.737 C63.2307184,7.628 64.5026868,6.621 65.9075474,6.621 C67.312408,6.621 68.6223457,7.628 68.6223457,9.737 C68.6223457,11.827 67.2744388,12.853 65.8695782,12.853 C64.445733,12.853 63.2307184,11.827 63.2307184,9.737 Z" id="Shape" fill="#6D7278" fill-rule="nonzero"></path>
                    <path d="M80.6775686,15 L83.335413,15 L83.335413,8.825 C83.335413,5.918 81.5888295,4.322 79.1398157,4.322 C77.7919089,4.322 76.6528327,4.892 75.969387,5.785 L75.969387,4.474 L73.3115426,4.474 L73.3115426,15 L75.969387,15 L75.969387,9.186 C75.969387,7.495 76.8996326,6.583 78.3424624,6.583 C79.747323,6.583 80.6775686,7.495 80.6775686,9.186 L80.6775686,15 Z" id="Path" fill="#6D7278" fill-rule="nonzero"></path>
                    <path d="M93.2263912,15 L95.8842356,15 L95.8842356,8.825 C95.8842356,5.918 94.1376521,4.322 91.6886383,4.322 C90.3407315,4.322 89.2016554,4.892 88.5182096,5.785 L88.5182096,4.474 L85.8603652,4.474 L85.8603652,15 L88.5182096,15 L88.5182096,9.186 C88.5182096,7.495 89.4484552,6.583 90.891285,6.583 C92.2961456,6.583 93.2263912,7.495 93.2263912,9.186 L93.2263912,15 Z" id="Path" fill="#6D7278" fill-rule="nonzero"></path>
                    <path d="M102.927523,6.488 C104.294415,6.488 105.395522,7.362 105.433491,8.749 L100.44054,8.749 C100.649371,7.305 101.655555,6.488 102.927523,6.488 Z M107.920474,11.694 L105.053799,11.694 C104.712076,12.397 104.085584,12.967 102.946508,12.967 C101.617586,12.967 100.554448,12.093 100.421556,10.535 L108.11032,10.535 C108.167274,10.193 108.186258,9.851 108.186258,9.509 C108.186258,6.374 106.040998,4.303 103.003462,4.303 C99.8899869,4.303 97.7257421,6.412 97.7257421,9.737 C97.7257421,13.043 99.9469407,15.171 103.003462,15.171 C105.604352,15.171 107.350936,13.632 107.920474,11.694 Z" id="Shape" fill="#6D7278" fill-rule="nonzero"></path>
                    <path d="M109.439242,9.737 C109.439242,13.043 111.603487,15.171 114.641023,15.171 C117.260899,15.171 119.026467,13.689 119.596005,11.447 L116.72933,11.447 C116.406592,12.397 115.723146,12.891 114.622039,12.891 C113.14124,12.891 112.15404,11.789 112.15404,9.737 C112.15404,7.685 113.14124,6.564 114.622039,6.564 C115.723146,6.564 116.425576,7.134 116.72933,8.027 L119.596005,8.027 C119.026467,5.671 117.260899,4.303 114.641023,4.303 C111.603487,4.303 109.439242,6.431 109.439242,9.737 Z" id="Path" fill="#6D7278" fill-rule="nonzero"></path>
                    <path d="M121.96908,11.732 C121.96908,14.145 123.316987,15 125.329355,15 L127,15 L127,12.758 L125.766001,12.758 C124.930678,12.758 124.645909,12.454 124.645909,11.751 L124.645909,6.659 L127,6.659 L127,4.474 L124.645909,4.474 L124.645909,1.871 L121.96908,1.871 L121.96908,4.474 L120.716096,4.474 L120.716096,6.659 L121.96908,6.659 L121.96908,11.732 Z" id="Path" fill="#6D7278" fill-rule="nonzero"></path>
                </g>
            </g>
        </g>
    </g>
</svg>